HIERARCHY
ROOT Model_Hips
{
	OFFSET 0.000000 96.915077 0.000000
	CHANNELS 6 Xposition Yposition Zposition Xrotation Yrotation Zrotation
	JOINT Model_Spine
	{
		OFFSET 0.000000 11.137703 -1.289900
		CHANNELS 3 Xrotation Yrotation Zrotation
		JOINT Model_Spine1
		{
			OFFSET 0.000000 12.993942 -1.504922
			CHANNELS 3 Xrotation Yrotation Zrotation
			JOINT Model_Spine2
			{
				OFFSET 0.000000 14.850220 -1.719911
				CHANNELS 3 Xrotation Yrotation Zrotation
				JOINT Model_Neck
				{
					OFFSET 0.000000 16.706543 -1.934903
					CHANNELS 3 Xrotation Yrotation Zrotation
					JOINT Model_Head
					{
						OFFSET 0.000000 10.471298 2.002100
						CHANNELS 3 Xrotation Yrotation Zrotation
						JOINT Model_HeadTop_End
						{
							OFFSET 0.000000 20.842606 3.985100
							CHANNELS 3 Xrotation Yrotation Zrotation
							End Site
							{
								OFFSET 0.000000 21.220154 0.000000
							}
						}
					}
				}
				JOINT Model_LeftShoulder
				{
					OFFSET 7.008500 14.768600 -1.919946
					CHANNELS 3 Xrotation Yrotation Zrotation
					JOINT Model_LeftArm
					{
						OFFSET 14.126271 -3.718048 0.029937
						CHANNELS 3 Xrotation Yrotation Zrotation
						JOINT Model_LeftForeArm
						{
							OFFSET 28.282801 0.000000 0.000000
							CHANNELS 3 Xrotation Yrotation Zrotation
							JOINT Model_LeftHand
							{
								OFFSET 26.204689 0.000000 0.000000
								CHANNELS 3 Xrotation Yrotation Zrotation
								End Site
								{
									OFFSET 26.204704 0.000000 0.000000
								}
							}
						}
					}
				}
				JOINT Model_RightShoulder
				{
					OFFSET -7.008500 14.768555 -1.949840
					CHANNELS 3 Xrotation Yrotation Zrotation
					JOINT Model_RightArm
					{
						OFFSET -14.126281 -3.718018 -0.029932
						CHANNELS 3 Xrotation Yrotation Zrotation
						JOINT Model_RightForeArm
						{
							OFFSET -28.283798 0.000000 -0.000001
							CHANNELS 3 Xrotation Yrotation Zrotation
							JOINT Model_RightHand
							{
								OFFSET -26.204193 0.000000 -0.000001
								CHANNELS 3 Xrotation Yrotation Zrotation
								End Site
								{
									OFFSET -26.204208 0.000000 -0.000001
								}
							}
						}
					}
				}
			}
		}
	}
	JOINT Model_LeftUpLeg
	{
		OFFSET 8.327700 -6.193199 -0.402800
		CHANNELS 3 Xrotation Yrotation Zrotation
		JOINT Model_LeftLeg
		{
			OFFSET 0.735802 -42.108742 -0.610721
			CHANNELS 3 Xrotation Yrotation Zrotation
			JOINT Model_LeftFoot
			{
				OFFSET -0.735806 -36.833748 -0.172876
				CHANNELS 3 Xrotation Yrotation Zrotation
				JOINT Model_LeftToeBase
				{
					OFFSET -0.565857 -11.977769 16.297714
					CHANNELS 3 Xrotation Yrotation Zrotation
					JOINT Model_LeftToe_End
					{
						OFFSET -0.111712 -0.312793 7.857784
						CHANNELS 3 Xrotation Yrotation Zrotation
						End Site
						{
							OFFSET -0.111712 -0.312793 7.857784
						}
					}
				}
			}
		}
	}
	JOINT Model_RightUpLeg
	{
		OFFSET -8.327700 -6.193199 -0.516500
		CHANNELS 3 Xrotation Yrotation Zrotation
		JOINT Model_RightLeg
		{
			OFFSET -0.735785 -42.108738 -0.434061
			CHANNELS 3 Xrotation Yrotation Zrotation
			JOINT Model_RightFoot
			{
				OFFSET 0.735776 -36.833748 -0.021630
				CHANNELS 3 Xrotation Yrotation Zrotation
				JOINT Model_RightToeBase
				{
					OFFSET 0.565817 -11.977745 15.903093
					CHANNELS 3 Xrotation Yrotation Zrotation
					JOINT Model_RightToe_End
					{
						OFFSET 0.111702 -0.312791 7.811342
						CHANNELS 3 Xrotation Yrotation Zrotation
						End Site
						{
							OFFSET 0.111702 -0.312791 7.811342
						}
					}
				}
			}
		}
	}
}
MOTION
Frames: 5
Frame Time: 0.016667
-0.170417 96.332657 0.305551 -3.751453 6.081085 4.390147 3.285375 -1.583448 -3.533624 1.158074 -0.357945 -1.691010 1.131805 -0.383461 -1.696558 5.626311 0.078966 -0.454685 5.621582 0.099936 -0.491952 -0.000000 0.000000 -0.000000 1.203148 -15.343653 -14.705978 13.158861 -27.555135 -58.785164 -0.000024 -6.693744 -0.000014 -0.000001 -0.000000 -0.000000 1.049439 17.442080 12.319433 3.916273 19.989274 69.765232 0.000009 1.459358 0.000003 -0.000001 -0.000000 -0.000000 0.126758 10.517573 -4.242052 12.599734 9.876668 3.285181 -8.269303 1.833660 -3.717385 -7.282878 0.000015 -0.000004 -0.000000 -0.000001 -0.000000 -17.954506 -32.368803 -16.068925 19.746405 7.281747 -5.877082 -4.706082 8.386029 5.905455 -4.928524 -0.000011 -0.000000 0.000001 -0.000001 -0.000000 
-0.110139 96.311203 -0.072133 -3.320933 4.232383 4.095993 3.318951 -1.716443 -3.582234 1.201485 -0.441190 -1.680088 1.173240 -0.467887 -1.670397 5.533605 -0.180034 -0.312596 5.533975 -0.153497 -0.341570 -0.000000 -0.000000 0.000000 1.225297 -15.379703 -14.585645 13.527483 -27.607739 -58.551387 0.000000 -6.807195 -0.000013 0.000005 -0.000000 -0.000000 1.027418 17.490125 12.414727 3.325743 19.935666 69.474273 0.000002 1.905642 0.000021 0.000003 -0.000000 0.000001 -0.596835 12.401557 -3.978975 13.228571 9.916145 3.285283 -8.536502 1.839659 -3.686702 -7.282882 -0.000000 -0.000003 -0.000000 -0.000002 -0.000000 -19.008295 -32.244637 -16.319767 19.931247 7.445467 -5.056805 -4.169343 9.856138 5.646528 -4.635742 -0.000005 0.000003 0.000000 0.000001 0.000000 
-0.002065 96.274017 -0.392410 -2.957662 2.391924 3.847386 3.362563 -1.829850 -3.625203 1.248462 -0.509766 -1.699851 1.218349 -0.536308 -1.655901 5.523486 -0.612423 -0.100402 5.536313 -0.572832 -0.110196 0.000001 -0.000000 0.000000 1.250887 -15.407589 -14.460540 13.944157 -27.532120 -58.271697 -0.000003 -6.984341 0.000013 -0.000003 -0.000000 -0.000000 0.993306 17.560112 12.568270 2.639244 19.942834 69.046642 0.000014 2.239526 -0.000004 0.000003 -0.000000 -0.000000 -1.268369 14.254675 -3.727588 13.954375 9.981464 3.285434 -8.908828 1.842999 -3.659024 -7.282874 -0.000023 -0.000001 0.000001 -0.000001 -0.000000 -20.291882 -32.131696 -16.828937 20.638368 7.748929 -4.327235 -4.086032 10.837765 6.124065 -4.410387 -0.000002 0.000003 0.000001 -0.000001 0.000000 
0.157059 96.252289 -0.751952 -2.649754 0.462537 3.589419 3.415057 -1.932307 -3.650443 1.300754 -0.572647 -1.741639 1.268901 -0.597253 -1.648437 5.574033 -1.154001 0.152526 5.604245 -1.096488 0.168837 0.000001 -0.000000 0.000000 1.278237 -15.426670 -14.337390 14.375779 -27.361697 -57.972194 -0.000002 -7.195229 0.000017 0.000004 0.000000 0.000000 0.951952 17.638651 12.756023 1.882723 19.997373 68.527629 -0.000011 2.462492 0.000025 0.000001 0.000000 -0.000001 -1.842165 16.180158 -3.466859 14.520135 10.011019 3.285738 -9.194962 1.880731 -3.578194 -7.282877 -0.000024 -0.000005 0.000000 0.000001 0.000000 -21.718895 -31.954934 -17.418611 21.617697 8.081536 -3.644008 -4.011858 11.386762 7.229924 -4.211250 -0.000006 0.000000 0.000001 -0.000002 -0.000000 
0.357644 96.244652 -1.144816 -2.398912 -1.512063 3.333745 3.478680 -2.023665 -3.640022 1.360988 -0.633287 -1.808118 1.327583 -0.653674 -1.648439 5.696209 -1.810649 0.444570 5.749570 -1.729911 0.494236 0.000001 0.000000 -0.000000 1.302120 -15.431568 -14.221623 14.812032 -27.087333 -57.658722 0.000000 -7.436517 -0.000002 -0.000001 0.000000 0.000000 0.903953 17.718583 12.975321 1.090635 20.084012 67.914518 0.000019 2.649975 -0.000009 -0.000002 -0.000000 -0.000000 -2.322647 18.140774 -3.209786 14.932062 10.013945 3.286295 -9.395058 1.938261 -3.452104 -7.282870 -0.000026 0.000000 0.000001 -0.000000 -0.000000 -23.129191 -31.720621 -18.039699 22.696454 8.385849 -2.946446 -3.919466 11.395944 8.787551 -3.966196 0.000002 -0.000010 -0.000000 0.000001 -0.000000 
